<svg width="355" height="78" viewBox="0 0 355 78" fill="none" xmlns="http://www.w3.org/2000/svg">
<path d="M5.93118 22.7724C8.63197 23.2644 10.8357 25.2159 12.5829 27.3339C15.7756 31.204 17.9491 35.9068 18.8284 40.8454C18.9179 41.3474 18.9886 41.8924 18.6669 42.3251C18.5004 42.5484 18.2292 42.6795 17.9554 42.6316C17.6085 42.5711 17.4736 42.2734 17.3562 41.9958C14.7337 35.821 11.6607 29.5805 6.53542 25.2512C5.62464 24.4817 4.05412 23.7185 3.31238 24.3745C2.23762 25.3256 2.45837 27.6063 2.7586 28.5045C3.65424 31.1889 5.20458 33.6058 6.85961 35.9017C9.39894 39.4262 12.2196 42.7477 15.2887 45.8218C17.5997 48.1379 24.7812 54.7177 27.1288 52.7624C28.6703 51.4782 28.037 49.4069 27.5274 47.4668C25.2505 38.8144 18.7905 29.4216 17.2314 20.6128C16.7142 17.6938 16.5817 14.6524 17.3701 11.7939C18.1598 8.93669 19.9586 6.27248 22.5837 4.89623C24.1808 4.05988 26.2634 3.79749 27.757 4.71584C27.9046 4.80666 27.8314 5.03373 27.6586 5.01985C26.3164 4.91389 24.9364 5.2835 23.8351 6.05929C22.696 6.86285 21.8786 8.05493 21.2882 9.31765C20.0268 12.0184 19.7202 15.0914 19.9977 18.0596C20.2753 21.0278 21.1116 23.914 22.0501 26.7422C24.2527 33.3775 28.6299 41.4559 29.1522 48.428C29.3162 50.623 29.0841 53.1724 27.2966 54.4578C25.6832 55.6184 23.4277 55.2576 21.596 54.4868C18.1093 53.0185 13.7346 48.7989 11.2154 45.977C8.89057 43.3733 6.74356 40.6107 4.79208 37.7157C3.38933 35.6343 2.01812 33.4633 1.39622 31.0312C-0.0935663 25.202 2.6539 22.1757 5.93118 22.7724Z" fill="#333333"/>
<path d="M42.8591 56.5781C42.9436 56.6109 42.9184 56.6008 43.0029 56.6336C46.8352 49.7372 52.3983 43.8487 57.8503 38.138C60.6697 35.1862 63.561 32.1965 65.3737 28.5395C67.1864 24.8826 67.7717 20.3703 65.8732 16.7575C64.0769 13.3402 59.6416 11.2676 56.1335 12.7057C55.9581 12.7776 55.7979 12.5682 55.9178 12.4206C56.5838 11.6057 57.598 11.0822 58.6312 10.8122C63.0173 9.66933 67.8399 12.7561 69.3978 17.0123C71.8753 23.7775 68.3608 31.2517 58.7573 40.1601C55.6491 43.0426 52.3428 45.7825 49.8489 49.1985C49.9296 49.2729 49.9031 49.249 49.9839 49.3234C52.0009 47.5586 54.4608 46.2984 57.0745 45.7017C59.1698 45.2237 61.7079 45.3157 63.035 47.0061C63.9407 48.1578 64.0227 49.799 63.5686 51.1929C63.1144 52.5855 62.1961 53.7764 61.2298 54.8776C56.7869 59.9437 50.8808 63.9564 48.0727 70.082C47.4647 71.4091 46.9992 73.6293 48.2859 74.318C51.3967 75.9832 59.0677 70.5172 64.5046 60.7724C68.3028 53.9643 68.1388 46.7349 69.2073 40.1955C69.6866 37.26 71.5145 34.2325 74.3213 33.3255C74.4121 33.2965 74.4827 33.4037 74.4184 33.4744C69.4482 38.9819 73.5808 52.4417 65.9351 64.5165C62.7209 69.5913 57.9576 73.879 52.1157 75.2793C50.052 75.7738 47.5631 75.8053 46.1616 74.2108C44.9506 72.8333 44.9847 70.7254 45.5448 68.9782C47.3474 63.3546 57.9803 54.5194 60.3228 51.4477C61.2033 50.2922 61.94 48.5463 60.9195 47.5107C60.3165 46.8989 59.3502 46.8547 58.4962 46.9468C55.6239 47.2584 52.9634 48.6599 50.6852 50.436C42.9222 56.4923 39.4544 66.4276 36.6817 75.8747C36.3676 76.9469 36.0359 78.1049 34.9245 77.9927C34.1147 77.9107 33.2834 77.1664 33.3174 76.354C33.3515 75.5416 33.8447 74.839 34.1878 74.101C46.0229 48.6523 43.2792 31.0183 41.7768 25.1828C39.1302 14.9057 35.6095 10.9169 35.6095 10.9169C35.3648 9.44101 39.2892 11.419 42.3495 17.5156C49.1891 31.1432 45.9308 47.7693 42.8604 56.5793" fill="#333333"/>
<path d="M33.3137 23.4143C36.3261 40.1791 37.3807 48.9425 36.3804 56.2628C35.404 63.4077 31.7659 66.5651 28.4786 66.8439C24.1757 67.2097 20.496 64.6553 11.5649 56.3422C8.17533 53.1873 6.47992 52.3522 5.47327 53.3072C4.33291 54.3882 5.35343 57.0903 11.5851 62.4023C17.0762 67.0836 20.4645 69.16 20.737 73.8236C20.7458 73.9813 20.5364 74.0443 20.4594 73.9056C18.6682 70.7116 12.6485 67.0659 9.6916 64.9757C2.40918 59.8289 2.15815 54.4955 4.74415 52.24C6.59219 50.6278 10.2189 51.3355 13.9339 54.469C18.8637 58.6255 25.9544 67.0634 29.9873 65.532C34.3229 63.8858 34.7985 51.0983 32.9189 39.6253C30.0529 22.1339 27.7709 13.035 29.4839 7.66367C30.2282 5.32744 32.5707 2.01736 36.3942 1.24156C40.7753 0.35097 44.706 0.98044 48.0287 5.90519C50.5289 9.61137 52.0061 16.2643 52.6595 23.4307C53.0657 27.8836 53.0342 32.218 54.659 32.1827C56.2812 32.1474 56.348 24.46 56.6495 21.8173C56.9397 19.278 58.3121 17.6671 60.7707 17.3353C60.8931 17.3189 60.9852 17.4564 60.9158 17.5586C58.6035 20.9204 59.7666 25.145 58.1646 30.3422C57.694 31.8699 56.3064 33.1225 54.7081 33.1679C52.5056 33.2297 50.6992 31.1256 50.1883 27.0397C49.4251 20.9343 48.1574 14.0568 46.4632 9.65552C45.613 7.44922 42.2172 0.485947 36.1142 2.45131C29.6151 4.54407 31.771 14.8187 33.315 23.413" fill="#333333"/>
<path d="M106.823 18.8349C108.623 18.8349 109.679 19.2909 110.303 19.5789C109.847 21.0909 109.343 22.8189 108.959 24.3549H108.767C109.487 20.2029 108.839 19.2429 106.199 19.2429C104.039 19.2429 102.575 20.5629 102.575 22.1949C102.575 25.4109 108.671 25.9869 108.671 29.3469C108.671 31.4349 106.079 33.6909 102.959 33.6909C100.967 33.6909 99.4068 33.0669 98.7348 32.5389C99.0708 31.2669 99.5028 29.6589 99.9348 27.8829H100.127C99.2148 32.2509 100.367 32.9709 103.871 32.9709C106.463 32.9709 107.663 31.7469 107.663 30.0429C107.663 26.8029 101.615 26.3949 101.615 22.9869C101.615 20.9229 103.751 18.8349 106.823 18.8349Z" fill="#333333"/>
<path d="M113.514 18.6909C113.514 18.2589 113.37 18.0189 113.13 18.0189C112.602 18.0189 111.738 19.0029 110.802 20.7549L110.682 20.6349C111.618 18.6429 112.746 17.1309 113.898 17.1309C114.378 17.1309 114.738 17.5389 114.738 18.3789C114.738 20.6829 112.722 27.9309 111.69 31.2189L111.834 31.2669C114.522 24.4269 116.61 22.0509 118.602 22.0509C119.586 22.0509 119.97 22.5789 119.97 23.2029C119.97 25.0749 117.762 30.2589 117.738 32.1309C117.762 32.5389 117.882 32.7789 118.146 32.7789C118.674 32.7789 119.538 31.7949 120.474 30.1149L120.594 30.2349C119.658 32.1789 118.482 33.6909 117.354 33.6909C116.85 33.6909 116.514 33.2829 116.514 32.4429C116.514 30.5949 118.77 25.2429 118.77 23.5389C118.77 23.1309 118.554 22.9149 118.098 22.9149C116.754 22.9149 114.234 24.8109 111.234 33.4509H110.058C110.946 30.3309 113.514 21.1149 113.514 18.6909Z" fill="#333333"/>
<path d="M127.544 22.3869C125.576 22.3869 124.088 24.4749 123.416 26.8749C127.064 25.9389 128.864 24.5949 128.864 23.4429C128.864 22.8429 128.408 22.3869 127.544 22.3869ZM129.944 23.3709C129.944 24.7149 127.592 26.2989 123.368 27.0189C123.128 27.8829 123.008 28.7949 123.008 29.6589C123.008 31.6989 123.992 32.8509 125.168 32.8509C126.776 32.8509 128.024 31.3389 129.08 29.3949L129.248 29.5149C128 32.0829 126.488 33.6909 124.592 33.6909C123.008 33.6909 121.736 32.2029 121.736 30.0189C121.736 26.3709 124.064 22.0269 128.192 22.0269C129.32 22.0269 129.944 22.5789 129.944 23.3709Z" fill="#333333"/>
<path d="M134.994 19.4589C134.49 19.4589 134.178 19.1469 134.178 18.5709C134.178 17.8269 134.634 17.4669 135.354 17.4669C135.858 17.4669 136.194 17.7549 136.194 18.3069C136.194 19.0749 135.714 19.4589 134.994 19.4589ZM134.85 23.2749C134.85 25.1229 132.978 30.5469 132.978 32.1069C132.978 32.4909 133.122 32.7309 133.362 32.7309C133.89 32.7309 134.754 31.7709 135.69 29.9949L135.834 30.1149C134.898 32.1309 133.746 33.6909 132.594 33.6909C132.09 33.6909 131.73 33.2829 131.73 32.4669C131.73 30.9789 133.626 25.1709 133.626 23.5869C133.626 23.1789 133.482 22.9629 133.242 22.9629C132.69 22.9629 131.85 23.9229 130.914 25.6989L130.794 25.5789C131.706 23.5629 132.834 22.0269 133.986 22.0269C134.49 22.0269 134.85 22.4349 134.85 23.2749Z" fill="#333333"/>
<path d="M143.631 33.6909C142.623 33.6909 142.191 32.5869 140.391 28.9389C143.847 27.8589 145.215 25.3389 145.215 23.8749C145.215 23.2509 145.023 22.9149 144.543 22.9149C143.175 22.9149 140.655 24.8109 137.679 33.4509H136.479C137.343 30.4269 139.935 21.1389 139.935 18.6909C139.935 18.2589 139.791 18.0189 139.551 18.0189C139.023 18.0189 138.159 19.0029 137.223 20.7549L137.103 20.6349C138.039 18.6429 139.167 17.1309 140.319 17.1309C140.799 17.1309 141.159 17.5389 141.159 18.3789C141.159 20.6349 139.167 27.9069 138.135 31.2189L138.255 31.2669C140.943 24.4509 143.031 22.0509 145.047 22.0509C146.031 22.0509 146.439 22.7709 146.439 23.6109C146.439 25.3629 144.663 27.9789 141.303 28.7709C143.031 31.8189 143.751 32.7789 144.351 32.7789C144.903 32.7789 145.743 31.7709 146.679 29.9949L146.823 30.1389C145.887 32.1309 144.783 33.6909 143.631 33.6909Z" fill="#333333"/>
<path d="M150.945 18.6909C150.945 18.2589 150.801 18.0189 150.561 18.0189C150.033 18.0189 149.169 19.0029 148.233 20.7549L148.113 20.6349C149.049 18.6429 150.177 17.1309 151.329 17.1309C151.809 17.1309 152.169 17.5389 152.169 18.3789C152.169 20.6829 150.153 27.9309 149.121 31.2189L149.265 31.2669C151.953 24.4269 154.041 22.0509 156.033 22.0509C157.017 22.0509 157.401 22.5789 157.401 23.2029C157.401 25.0749 155.193 30.2589 155.169 32.1309C155.193 32.5389 155.313 32.7789 155.577 32.7789C156.105 32.7789 156.969 31.7949 157.905 30.1149L158.025 30.2349C157.089 32.1789 155.913 33.6909 154.785 33.6909C154.281 33.6909 153.945 33.2829 153.945 32.4429C153.945 30.5949 156.201 25.2429 156.201 23.5389C156.201 23.1309 155.985 22.9149 155.529 22.9149C154.185 22.9149 151.665 24.8109 148.665 33.4509H147.489C148.377 30.3309 150.945 21.1149 150.945 18.6909Z" fill="#333333"/>
<path d="M166.391 32.0829C166.391 32.4909 166.535 32.7549 166.775 32.7549C167.327 32.7549 168.167 31.7709 169.103 29.9949L169.247 30.1149C168.311 32.1309 167.183 33.6909 166.007 33.6909C165.527 33.6909 165.191 33.2829 165.191 32.4429C165.191 30.5469 166.319 26.4909 166.991 24.4029L166.871 24.3549C163.847 31.0029 162.143 33.6909 160.295 33.6909C159.311 33.6909 158.735 32.9709 158.735 31.3629C158.735 27.0429 162.407 21.8829 168.671 22.0749C167.999 24.2349 166.391 29.9469 166.391 32.0829ZM160.823 32.8029C161.927 32.8029 164.063 30.6669 167.399 22.4109C162.335 23.0589 159.935 27.9069 159.935 31.1949C159.935 32.4429 160.271 32.8029 160.823 32.8029Z" fill="#333333"/>
<path d="M180.84 18.8349C182.64 18.8349 183.696 19.2909 184.32 19.5789C183.864 21.0909 183.36 22.8189 182.976 24.3549H182.784C183.504 20.2029 182.856 19.2429 180.216 19.2429C178.056 19.2429 176.592 20.5629 176.592 22.1949C176.592 25.4109 182.688 25.9869 182.688 29.3469C182.688 31.4349 180.096 33.6909 176.976 33.6909C174.984 33.6909 173.424 33.0669 172.752 32.5389C173.088 31.2669 173.52 29.6589 173.952 27.8829H174.144C173.232 32.2509 174.384 32.9709 177.888 32.9709C180.48 32.9709 181.68 31.7469 181.68 30.0429C181.68 26.8029 175.632 26.3949 175.632 22.9869C175.632 20.9229 177.768 18.8349 180.84 18.8349Z" fill="#333333"/>
<path d="M187.532 18.6909C187.532 18.2589 187.388 18.0189 187.148 18.0189C186.62 18.0189 185.756 19.0029 184.82 20.7549L184.7 20.6349C185.636 18.6429 186.764 17.1309 187.916 17.1309C188.396 17.1309 188.756 17.5389 188.756 18.3789C188.756 20.6829 186.74 27.9309 185.708 31.2189L185.852 31.2669C188.54 24.4269 190.628 22.0509 192.62 22.0509C193.604 22.0509 193.988 22.5789 193.988 23.2029C193.988 25.0749 191.78 30.2589 191.756 32.1309C191.78 32.5389 191.9 32.7789 192.164 32.7789C192.692 32.7789 193.556 31.7949 194.492 30.1149L194.612 30.2349C193.676 32.1789 192.5 33.6909 191.372 33.6909C190.868 33.6909 190.532 33.2829 190.532 32.4429C190.532 30.5949 192.788 25.2429 192.788 23.5389C192.788 23.1309 192.572 22.9149 192.116 22.9149C190.772 22.9149 188.252 24.8109 185.252 33.4509H184.076C184.964 30.3309 187.532 21.1149 187.532 18.6909Z" fill="#333333"/>
<path d="M202.977 32.0829C202.977 32.4909 203.121 32.7549 203.361 32.7549C203.913 32.7549 204.753 31.7709 205.689 29.9949L205.833 30.1149C204.897 32.1309 203.769 33.6909 202.593 33.6909C202.113 33.6909 201.777 33.2829 201.777 32.4429C201.777 30.5469 202.905 26.4909 203.577 24.4029L203.457 24.3549C200.433 31.0029 198.729 33.6909 196.881 33.6909C195.897 33.6909 195.321 32.9709 195.321 31.3629C195.321 27.0429 198.993 21.8829 205.257 22.0749C204.585 24.2349 202.977 29.9469 202.977 32.0829ZM197.409 32.8029C198.513 32.8029 200.649 30.6669 203.985 22.4109C198.921 23.0589 196.521 27.9069 196.521 31.1949C196.521 32.4429 196.857 32.8029 197.409 32.8029Z" fill="#333333"/>
<path d="M220.922 32.0829C220.922 32.5149 221.066 32.7309 221.306 32.7309C221.834 32.7309 222.698 31.7709 223.634 29.9949L223.754 30.1149C222.842 32.1309 221.69 33.6909 220.538 33.6909C220.034 33.6909 219.674 33.2829 219.674 32.4189C219.674 30.5709 221.93 25.2429 221.93 23.5629C221.93 23.1549 221.714 22.9389 221.258 22.9389C219.914 22.9389 217.394 24.8349 214.418 33.4509H213.194C213.89 30.9069 215.546 25.0989 215.546 23.5389C215.546 23.1549 215.306 22.9389 214.874 22.9389C213.554 22.9389 211.13 24.8589 208.178 33.4509H206.954C207.554 31.4349 209.354 25.3869 209.354 23.6349C209.354 23.2269 209.234 22.9869 208.994 22.9869C208.442 22.9869 207.602 23.9709 206.666 25.7229L206.522 25.6029C207.458 23.5869 208.61 22.0269 209.738 22.0269C210.242 22.0269 210.554 22.4349 210.554 23.2989C210.554 24.7629 209.33 29.0589 208.658 31.2189L208.778 31.2669C211.442 24.4749 213.41 22.0509 215.378 22.0509C216.338 22.0509 216.674 22.5789 216.674 23.2269C216.674 24.6909 215.498 28.7949 214.874 31.2189L215.018 31.2669C217.706 24.4509 219.746 22.0509 221.762 22.0509C222.746 22.0509 223.13 22.5789 223.13 23.2269C223.13 25.0749 220.922 30.2349 220.922 32.0829Z" fill="#333333"/>
<path d="M239.034 32.0829C239.034 32.5149 239.178 32.7309 239.418 32.7309C239.946 32.7309 240.81 31.7709 241.746 29.9949L241.866 30.1149C240.954 32.1309 239.802 33.6909 238.65 33.6909C238.146 33.6909 237.786 33.2829 237.786 32.4189C237.786 30.5709 240.042 25.2429 240.042 23.5629C240.042 23.1549 239.826 22.9389 239.37 22.9389C238.026 22.9389 235.506 24.8349 232.53 33.4509H231.306C232.002 30.9069 233.658 25.0989 233.658 23.5389C233.658 23.1549 233.418 22.9389 232.986 22.9389C231.666 22.9389 229.242 24.8589 226.29 33.4509H225.066C225.666 31.4349 227.466 25.3869 227.466 23.6349C227.466 23.2269 227.346 22.9869 227.106 22.9869C226.554 22.9869 225.714 23.9709 224.778 25.7229L224.634 25.6029C225.57 23.5869 226.722 22.0269 227.85 22.0269C228.354 22.0269 228.666 22.4349 228.666 23.2989C228.666 24.7629 227.442 29.0589 226.77 31.2189L226.89 31.2669C229.554 24.4749 231.522 22.0509 233.49 22.0509C234.45 22.0509 234.786 22.5789 234.786 23.2269C234.786 24.6909 233.61 28.7949 232.986 31.2189L233.13 31.2669C235.818 24.4509 237.858 22.0509 239.874 22.0509C240.858 22.0509 241.242 22.5789 241.242 23.2269C241.242 25.0749 239.034 30.2349 239.034 32.0829Z" fill="#333333"/>
<path d="M250.257 32.0829C250.257 32.4909 250.401 32.7549 250.641 32.7549C251.193 32.7549 252.033 31.7709 252.969 29.9949L253.113 30.1149C252.177 32.1309 251.049 33.6909 249.873 33.6909C249.393 33.6909 249.057 33.2829 249.057 32.4429C249.057 30.5469 250.185 26.4909 250.857 24.4029L250.737 24.3549C247.713 31.0029 246.009 33.6909 244.161 33.6909C243.177 33.6909 242.601 32.9709 242.601 31.3629C242.601 27.0429 246.273 21.8829 252.537 22.0749C251.865 24.2349 250.257 29.9469 250.257 32.0829ZM244.689 32.8029C245.793 32.8029 247.929 30.6669 251.265 22.4109C246.201 23.0589 243.801 27.9069 243.801 31.1949C243.801 32.4429 244.137 32.8029 244.689 32.8029Z" fill="#333333"/>
<path d="M267.659 28.3869C267.659 26.8509 266.939 25.8669 264.899 25.8669C263.771 25.8669 262.595 25.9869 261.395 26.1549C259.979 31.8909 259.835 32.6589 259.883 33.2109C266.915 33.0189 267.659 31.1229 267.659 28.3869ZM262.979 33.4509H255.851L255.875 33.2349L257.555 33.0189C258.659 32.8749 258.707 32.7309 260.291 26.4189C261.971 19.6269 261.947 19.5549 260.795 19.4349L259.331 19.2669L259.355 19.0509H266.243C268.523 19.0509 269.483 19.7949 269.483 21.2589C269.483 23.1309 267.875 24.9309 266.243 25.6029V25.6989C268.139 25.9629 268.859 26.8749 268.859 28.1709C268.859 30.8109 266.171 33.4509 262.979 33.4509ZM265.019 25.6269C265.307 25.6269 265.547 25.6269 265.787 25.6509C267.227 24.8829 268.379 22.9149 268.379 21.3789C268.379 19.7229 267.155 19.3869 263.315 19.3389C263.051 19.8429 262.763 20.6589 261.539 25.6269H265.019Z" fill="#333333"/>
<path d="M274.585 19.4589C274.081 19.4589 273.769 19.1469 273.769 18.5709C273.769 17.8269 274.225 17.4669 274.945 17.4669C275.449 17.4669 275.785 17.7549 275.785 18.3069C275.785 19.0749 275.305 19.4589 274.585 19.4589ZM274.441 23.2749C274.441 25.1229 272.569 30.5469 272.569 32.1069C272.569 32.4909 272.713 32.7309 272.953 32.7309C273.481 32.7309 274.345 31.7709 275.281 29.9949L275.425 30.1149C274.489 32.1309 273.337 33.6909 272.185 33.6909C271.681 33.6909 271.321 33.2829 271.321 32.4669C271.321 30.9789 273.217 25.1709 273.217 23.5869C273.217 23.1789 273.073 22.9629 272.833 22.9629C272.281 22.9629 271.441 23.9229 270.505 25.6989L270.385 25.5789C271.297 23.5629 272.425 22.0269 273.577 22.0269C274.081 22.0269 274.441 22.4349 274.441 23.2749Z" fill="#333333"/>
<path d="M280.294 23.2989C280.294 24.7629 279.07 29.0829 278.398 31.2189L278.494 31.2669C281.206 24.4509 283.246 22.0509 285.262 22.0509C286.246 22.0509 286.63 22.5789 286.63 23.2269C286.63 25.0749 284.422 30.2589 284.422 32.0829C284.422 32.5149 284.566 32.7309 284.806 32.7309C285.334 32.7309 286.198 31.7709 287.134 29.9949L287.254 30.1149C286.342 32.1309 285.19 33.6909 284.038 33.6909C283.534 33.6909 283.174 33.2829 283.174 32.4189C283.174 30.5709 285.43 25.2429 285.43 23.5629C285.43 23.1549 285.19 22.9389 284.758 22.9389C283.414 22.9389 280.894 24.8349 277.918 33.4509H276.694C277.318 31.4109 279.094 25.3389 279.094 23.6349C279.094 23.2269 278.974 22.9869 278.734 22.9869C278.182 22.9869 277.342 23.9709 276.406 25.7229L276.262 25.6029C277.198 23.5869 278.35 22.0269 279.478 22.0269C279.982 22.0269 280.294 22.4349 280.294 23.2989Z" fill="#333333"/>
<path d="M288.668 32.4189C288.668 30.9549 290.012 26.4189 290.924 22.6029H289.388L289.436 22.2669H290.996C291.572 21.9309 292.1 20.9469 292.7 19.2189L292.916 19.2429C292.7 20.1069 292.436 21.1389 292.148 22.2669H295.292L295.22 22.6029H292.052C291.068 26.4189 289.916 31.0029 289.916 32.0589C289.916 32.4909 290.06 32.7309 290.492 32.7309C291.332 32.7309 292.364 31.6989 293.516 29.6349L293.66 29.7549C292.58 32.0589 291.164 33.6909 289.748 33.6909C289.076 33.6909 288.668 33.2829 288.668 32.4189Z" fill="#333333"/>
<path d="M305.531 18.8349C307.331 18.8349 308.387 19.2909 309.011 19.5789C308.555 21.0909 308.051 22.8189 307.667 24.3549H307.475C308.195 20.2029 307.547 19.2429 304.907 19.2429C302.747 19.2429 301.283 20.5629 301.283 22.1949C301.283 25.4109 307.379 25.9869 307.379 29.3469C307.379 31.4349 304.787 33.6909 301.667 33.6909C299.675 33.6909 298.115 33.0669 297.443 32.5389C297.779 31.2669 298.211 29.6589 298.643 27.8829H298.835C297.923 32.2509 299.075 32.9709 302.579 32.9709C305.171 32.9709 306.371 31.7469 306.371 30.0429C306.371 26.8029 300.323 26.3949 300.323 22.9869C300.323 20.9229 302.459 18.8349 305.531 18.8349Z" fill="#333333"/>
<path d="M315.798 32.4429C315.798 30.9789 317.046 26.6589 317.718 24.4989L317.598 24.4509C314.91 31.2669 312.87 33.6669 310.83 33.6669C309.846 33.6669 309.486 33.1389 309.486 32.4909C309.486 30.6429 311.694 25.4589 311.694 23.6109C311.694 23.2029 311.574 22.9629 311.31 22.9629C310.782 22.9629 309.942 23.9469 308.982 25.6989L308.862 25.5789C309.774 23.5629 310.926 22.0269 312.078 22.0269C312.606 22.0269 312.942 22.4349 312.942 23.2749C312.942 25.1229 310.662 30.5709 310.662 32.1549C310.662 32.5629 310.902 32.7789 311.358 32.7789C312.702 32.7789 315.198 30.8829 318.174 22.2669H319.398C318.798 24.3309 316.998 30.3549 316.998 32.0829C316.998 32.4909 317.142 32.7309 317.382 32.7309C317.934 32.7309 318.774 31.7709 319.71 29.9949L319.854 30.1149C318.918 32.1309 317.766 33.6909 316.614 33.6909C316.134 33.6909 315.798 33.2829 315.798 32.4429Z" fill="#333333"/>
<path d="M324.149 18.6909C324.149 18.2589 324.005 18.0189 323.765 18.0189C323.237 18.0189 322.397 19.0029 321.461 20.7549L321.317 20.6349C322.253 18.6189 323.381 17.1309 324.533 17.1309C325.013 17.1309 325.373 17.5389 325.373 18.3789C325.373 21.0189 322.277 29.6349 322.301 32.0829C322.301 32.4909 322.445 32.7309 322.685 32.7309C323.213 32.7309 324.053 31.7709 325.013 29.9949L325.133 30.1149C324.197 32.1309 323.069 33.6909 321.917 33.6909C321.413 33.6909 321.053 33.2829 321.053 32.4429C321.053 30.3069 324.149 21.1869 324.149 18.6909Z" fill="#333333"/>
<path d="M326.515 32.4189C326.515 30.9549 327.859 26.4189 328.771 22.6029H327.235L327.283 22.2669H328.843C329.419 21.9309 329.947 20.9469 330.547 19.2189L330.763 19.2429C330.547 20.1069 330.283 21.1389 329.995 22.2669H333.139L333.067 22.6029H329.899C328.915 26.4189 327.763 31.0029 327.763 32.0589C327.763 32.4909 327.907 32.7309 328.339 32.7309C329.179 32.7309 330.211 31.6989 331.363 29.6349L331.507 29.7549C330.427 32.0589 329.011 33.6909 327.595 33.6909C326.923 33.6909 326.515 33.2829 326.515 32.4189Z" fill="#333333"/>
<path d="M339.985 32.0829C339.985 32.4909 340.129 32.7549 340.369 32.7549C340.921 32.7549 341.761 31.7709 342.697 29.9949L342.841 30.1149C341.905 32.1309 340.777 33.6909 339.601 33.6909C339.121 33.6909 338.785 33.2829 338.785 32.4429C338.785 30.5469 339.913 26.4909 340.585 24.4029L340.465 24.3549C337.441 31.0029 335.737 33.6909 333.889 33.6909C332.905 33.6909 332.329 32.9709 332.329 31.3629C332.329 27.0429 336.001 21.8829 342.265 22.0749C341.593 24.2349 339.985 29.9469 339.985 32.0829ZM334.417 32.8029C335.521 32.8029 337.657 30.6669 340.993 22.4109C335.929 23.0589 333.529 27.9069 333.529 31.1949C333.529 32.4429 333.865 32.8029 334.417 32.8029Z" fill="#333333"/>
<path d="M347.562 23.2989C347.562 24.7629 346.338 29.0829 345.666 31.2189L345.762 31.2669C348.474 24.4509 350.514 22.0509 352.53 22.0509C353.514 22.0509 353.898 22.5789 353.898 23.2269C353.898 25.0749 351.69 30.2589 351.69 32.0829C351.69 32.5149 351.834 32.7309 352.074 32.7309C352.602 32.7309 353.466 31.7709 354.402 29.9949L354.522 30.1149C353.61 32.1309 352.458 33.6909 351.306 33.6909C350.802 33.6909 350.442 33.2829 350.442 32.4189C350.442 30.5709 352.698 25.2429 352.698 23.5629C352.698 23.1549 352.458 22.9389 352.026 22.9389C350.682 22.9389 348.162 24.8349 345.186 33.4509H343.962C344.586 31.4109 346.362 25.3389 346.362 23.6349C346.362 23.2269 346.242 22.9869 346.002 22.9869C345.45 22.9869 344.61 23.9709 343.674 25.7229L343.53 25.6029C344.466 23.5869 345.618 22.0269 346.746 22.0269C347.25 22.0269 347.562 22.4349 347.562 23.2989Z" fill="#333333"/>
<path d="M109.775 54.3869C109.775 52.8509 109.055 51.8669 107.015 51.8669C105.887 51.8669 104.711 51.9869 103.511 52.1549C102.095 57.8909 101.951 58.6589 101.999 59.2109C109.031 59.0189 109.775 57.1229 109.775 54.3869ZM105.095 59.4509H97.9668L97.9908 59.2349L99.6708 59.0189C100.775 58.8749 100.823 58.7309 102.407 52.4189C104.087 45.6269 104.063 45.5549 102.911 45.4349L101.447 45.2669L101.471 45.0509H108.359C110.639 45.0509 111.599 45.7949 111.599 47.2589C111.599 49.1309 109.991 50.9309 108.359 51.6029V51.6989C110.255 51.9629 110.975 52.8749 110.975 54.1709C110.975 56.8109 108.287 59.4509 105.095 59.4509ZM107.135 51.6269C107.423 51.6269 107.663 51.6269 107.903 51.6509C109.343 50.8829 110.495 48.9149 110.495 47.3789C110.495 45.7229 109.271 45.3869 105.431 45.3389C105.167 45.8429 104.879 46.6589 103.655 51.6269H107.135Z" fill="#333333"/>
<path d="M116.701 45.4589C116.197 45.4589 115.885 45.1469 115.885 44.5709C115.885 43.8269 116.341 43.4669 117.061 43.4669C117.565 43.4669 117.901 43.7549 117.901 44.3069C117.901 45.0749 117.421 45.4589 116.701 45.4589ZM116.557 49.2749C116.557 51.1229 114.685 56.5469 114.685 58.1069C114.685 58.4909 114.829 58.7309 115.069 58.7309C115.597 58.7309 116.461 57.7709 117.397 55.9949L117.541 56.1149C116.605 58.1309 115.453 59.6909 114.301 59.6909C113.797 59.6909 113.437 59.2829 113.437 58.4669C113.437 56.9789 115.333 51.1709 115.333 49.5869C115.333 49.1789 115.189 48.9629 114.949 48.9629C114.397 48.9629 113.557 49.9229 112.621 51.6989L112.501 51.5789C113.413 49.5629 114.541 48.0269 115.693 48.0269C116.197 48.0269 116.557 48.4349 116.557 49.2749Z" fill="#333333"/>
<path d="M122.41 49.2989C122.41 50.7629 121.186 55.0829 120.514 57.2189L120.61 57.2669C123.322 50.4509 125.362 48.0509 127.378 48.0509C128.362 48.0509 128.746 48.5789 128.746 49.2269C128.746 51.0749 126.538 56.2589 126.538 58.0829C126.538 58.5149 126.682 58.7309 126.922 58.7309C127.45 58.7309 128.314 57.7709 129.25 55.9949L129.37 56.1149C128.458 58.1309 127.306 59.6909 126.154 59.6909C125.65 59.6909 125.29 59.2829 125.29 58.4189C125.29 56.5709 127.546 51.2429 127.546 49.5629C127.546 49.1549 127.306 48.9389 126.874 48.9389C125.53 48.9389 123.01 50.8349 120.034 59.4509H118.81C119.434 57.4109 121.21 51.3389 121.21 49.6349C121.21 49.2269 121.09 48.9869 120.85 48.9869C120.298 48.9869 119.458 49.9709 118.522 51.7229L118.378 51.6029C119.314 49.5869 120.466 48.0269 121.594 48.0269C122.098 48.0269 122.41 48.4349 122.41 49.2989Z" fill="#333333"/>
<path d="M139.504 51.8669C144.544 47.8589 145.984 46.7549 146.128 46.0829C146.2 45.6989 145.96 45.5309 145.36 45.4589L143.56 45.2669L143.608 45.0509H149.2L149.152 45.2669L148.792 45.3389C147.928 45.5549 145.912 47.1869 140.512 51.3869C141.952 53.8349 143.488 56.3789 144.736 58.1309C145.264 58.8749 145.576 59.0429 146.32 59.2349L146.296 59.4509H143.824C142.696 57.2189 140.8 53.9789 139.504 51.8669ZM136.84 52.3949C138.424 46.0109 138.496 45.6749 137.728 45.5309L135.928 45.2669L135.976 45.0509H142.456L142.408 45.2669L140.296 45.5549C139.672 45.6509 139.48 46.0829 137.968 52.1069C136.384 58.5149 136.312 58.8269 137.08 58.9469L138.928 59.2349L138.88 59.4509H132.376L132.4 59.2349L134.488 58.9469C135.136 58.8509 135.304 58.3949 136.84 52.3949Z" fill="#333333"/>
<path d="M151.578 44.6909C151.578 44.2589 151.434 44.0189 151.194 44.0189C150.666 44.0189 149.802 45.0029 148.866 46.7549L148.746 46.6349C149.682 44.6429 150.81 43.1309 151.962 43.1309C152.442 43.1309 152.802 43.5389 152.802 44.3789C152.802 46.6829 150.786 53.9309 149.754 57.2189L149.898 57.2669C152.586 50.4269 154.674 48.0509 156.666 48.0509C157.65 48.0509 158.034 48.5789 158.034 49.2029C158.034 51.0749 155.826 56.2589 155.802 58.1309C155.826 58.5389 155.946 58.7789 156.21 58.7789C156.738 58.7789 157.602 57.7949 158.538 56.1149L158.658 56.2349C157.722 58.1789 156.546 59.6909 155.418 59.6909C154.914 59.6909 154.578 59.2829 154.578 58.4429C154.578 56.5949 156.834 51.2429 156.834 49.5389C156.834 49.1309 156.618 48.9149 156.162 48.9149C154.818 48.9149 152.298 50.8109 149.298 59.4509H148.122C149.01 56.3309 151.578 47.1149 151.578 44.6909Z" fill="#333333"/>
<path d="M167.023 58.0829C167.023 58.4909 167.167 58.7549 167.407 58.7549C167.959 58.7549 168.799 57.7709 169.735 55.9949L169.879 56.1149C168.943 58.1309 167.815 59.6909 166.639 59.6909C166.159 59.6909 165.823 59.2829 165.823 58.4429C165.823 56.5469 166.951 52.4909 167.623 50.4029L167.503 50.3549C164.479 57.0029 162.775 59.6909 160.927 59.6909C159.943 59.6909 159.367 58.9709 159.367 57.3629C159.367 53.0429 163.039 47.8829 169.303 48.0749C168.631 50.2349 167.023 55.9469 167.023 58.0829ZM161.455 58.8029C162.559 58.8029 164.695 56.6669 168.031 48.4109C162.967 49.0589 160.567 53.9069 160.567 57.1949C160.567 58.4429 160.903 58.8029 161.455 58.8029Z" fill="#333333"/>
<path d="M173.928 44.6909C173.928 44.2589 173.784 44.0189 173.544 44.0189C173.016 44.0189 172.176 45.0029 171.24 46.7549L171.096 46.6349C172.032 44.6189 173.16 43.1309 174.312 43.1309C174.792 43.1309 175.152 43.5389 175.152 44.3789C175.152 47.0189 172.056 55.6349 172.08 58.0829C172.08 58.4909 172.224 58.7309 172.464 58.7309C172.992 58.7309 173.832 57.7709 174.792 55.9949L174.912 56.1149C173.976 58.1309 172.848 59.6909 171.696 59.6909C171.192 59.6909 170.832 59.2829 170.832 58.4429C170.832 56.3069 173.928 47.1869 173.928 44.6909Z" fill="#333333"/>
<path d="M179.966 45.4589C179.462 45.4589 179.15 45.1469 179.15 44.5709C179.15 43.8269 179.606 43.4669 180.326 43.4669C180.83 43.4669 181.166 43.7549 181.166 44.3069C181.166 45.0749 180.686 45.4589 179.966 45.4589ZM179.822 49.2749C179.822 51.1229 177.95 56.5469 177.95 58.1069C177.95 58.4909 178.094 58.7309 178.334 58.7309C178.862 58.7309 179.726 57.7709 180.662 55.9949L180.806 56.1149C179.87 58.1309 178.718 59.6909 177.566 59.6909C177.062 59.6909 176.702 59.2829 176.702 58.4669C176.702 56.9789 178.598 51.1709 178.598 49.5869C178.598 49.1789 178.454 48.9629 178.214 48.9629C177.662 48.9629 176.822 49.9229 175.886 51.6989L175.766 51.5789C176.678 49.5629 177.806 48.0269 178.958 48.0269C179.462 48.0269 179.822 48.4349 179.822 49.2749Z" fill="#333333"/>
<path d="M181.811 61.2509C182.627 58.2749 183.443 52.4909 183.899 48.6029H182.123L182.195 48.2669H183.923C184.379 44.5229 185.843 43.1549 187.643 43.1549C188.555 43.1549 188.771 43.5629 188.795 44.1389C188.411 44.0909 187.859 44.0429 187.379 44.0429C185.747 44.0429 184.619 45.0269 184.619 46.7309C184.619 47.4029 184.763 47.6909 185.027 48.2669H187.691L187.643 48.6029H185.003C184.691 51.9149 183.899 57.8669 183.107 61.1309C182.651 62.8829 181.403 63.6269 179.315 63.7229L179.291 63.4829C180.755 63.3389 181.475 62.5709 181.811 61.2509Z" fill="#333333"/>
<path d="M194.306 58.0829C194.306 58.4909 194.45 58.7549 194.69 58.7549C195.242 58.7549 196.082 57.7709 197.018 55.9949L197.162 56.1149C196.226 58.1309 195.098 59.6909 193.922 59.6909C193.442 59.6909 193.106 59.2829 193.106 58.4429C193.106 56.5469 194.234 52.4909 194.906 50.4029L194.786 50.3549C191.762 57.0029 190.058 59.6909 188.21 59.6909C187.226 59.6909 186.65 58.9709 186.65 57.3629C186.65 53.0429 190.322 47.8829 196.586 48.0749C195.914 50.2349 194.306 55.9469 194.306 58.0829ZM188.738 58.8029C189.842 58.8029 191.978 56.6669 195.314 48.4109C190.25 49.0589 187.85 53.9069 187.85 57.1949C187.85 58.4429 188.186 58.8029 188.738 58.8029Z" fill="#333333"/>
<path d="M204.747 59.2349L204.723 59.4509H199.467L199.491 59.2349L199.827 59.1389C200.691 58.8989 201.579 57.2189 209.739 44.6909H209.955C210.123 46.1789 210.771 49.6829 211.131 51.7469C211.947 56.7149 212.163 58.7549 212.883 59.0909L213.171 59.2349L213.147 59.4509H207.795L207.819 59.2349L209.475 59.0909C210.435 58.9949 210.795 58.7069 210.795 58.2509C210.795 57.4589 210.507 55.1069 210.243 53.2829C208.395 53.2589 206.475 53.2349 204.579 53.3309C203.019 55.9229 202.011 57.8429 202.011 58.4189C202.011 58.7789 202.251 58.9709 202.923 59.0429L204.747 59.2349ZM210.099 52.4189C209.787 50.5469 209.211 47.6909 208.899 46.3949C207.387 48.7469 205.947 51.0509 204.771 52.9709C206.619 53.0669 208.539 53.0429 210.195 53.0189C210.171 52.8029 210.123 52.6109 210.099 52.4189Z" fill="#333333"/>
<path d="M218.027 44.6909C218.027 44.2589 217.883 44.0189 217.643 44.0189C217.115 44.0189 216.275 45.0029 215.339 46.7549L215.195 46.6349C216.131 44.6189 217.259 43.1309 218.411 43.1309C218.891 43.1309 219.251 43.5389 219.251 44.3789C219.251 47.0189 216.155 55.6349 216.179 58.0829C216.179 58.4909 216.323 58.7309 216.563 58.7309C217.091 58.7309 217.931 57.7709 218.891 55.9949L219.011 56.1149C218.075 58.1309 216.947 59.6909 215.795 59.6909C215.291 59.6909 214.931 59.2829 214.931 58.4429C214.931 56.3069 218.027 47.1869 218.027 44.6909Z" fill="#333333"/>
<path d="M234.13 59.6909C232.906 56.5229 230.242 50.2829 228.682 46.8029C228.514 46.4669 228.37 46.2269 228.202 46.0349C225.418 57.8669 225.274 58.7309 226.618 58.9229L229.45 59.2349L229.426 59.4509H221.962L221.986 59.2349L223.426 59.0189C224.722 58.7789 224.818 57.9389 227.986 45.8189C227.722 45.6269 227.362 45.5069 226.834 45.4349L225.49 45.2669L225.514 45.0509H229.546C230.866 48.6749 232.69 53.4029 234.586 57.4109C237.25 46.2509 237.418 45.6989 236.266 45.5549L233.53 45.2669L233.578 45.0509H239.986L239.962 45.2669L239.122 45.4109C237.898 45.6989 237.658 46.2269 234.874 57.3389C234.658 58.2749 234.466 59.0669 234.346 59.6669L234.13 59.6909Z" fill="#333333"/>
<path d="M246.069 58.0829C246.069 58.4909 246.213 58.7549 246.453 58.7549C247.005 58.7549 247.845 57.7709 248.781 55.9949L248.925 56.1149C247.989 58.1309 246.861 59.6909 245.685 59.6909C245.205 59.6909 244.869 59.2829 244.869 58.4429C244.869 56.5469 245.997 52.4909 246.669 50.4029L246.549 50.3549C243.525 57.0029 241.821 59.6909 239.973 59.6909C238.989 59.6909 238.413 58.9709 238.413 57.3629C238.413 53.0429 242.085 47.8829 248.349 48.0749C247.677 50.2349 246.069 55.9469 246.069 58.0829ZM240.501 58.8029C241.605 58.8029 243.741 56.6669 247.077 48.4109C242.013 49.0589 239.613 53.9069 239.613 57.1949C239.613 58.4429 239.949 58.8029 240.501 58.8029Z" fill="#333333"/>
<path d="M252.878 44.6909C252.878 44.2589 252.734 44.0189 252.494 44.0189C251.966 44.0189 251.102 45.0029 250.166 46.7549L250.046 46.6349C250.982 44.6429 252.11 43.1309 253.262 43.1309C253.742 43.1309 254.102 43.5389 254.102 44.3789C254.102 46.6829 252.086 53.9309 251.054 57.2189L251.198 57.2669C253.886 50.4269 255.974 48.0509 257.966 48.0509C258.95 48.0509 259.334 48.5789 259.334 49.2029C259.334 51.0749 257.126 56.2589 257.102 58.1309C257.126 58.5389 257.246 58.7789 257.51 58.7789C258.038 58.7789 258.902 57.7949 259.838 56.1149L259.958 56.2349C259.022 58.1789 257.846 59.6909 256.718 59.6909C256.214 59.6909 255.878 59.2829 255.878 58.4429C255.878 56.5949 258.134 51.2429 258.134 49.5389C258.134 49.1309 257.918 48.9149 257.462 48.9149C256.118 48.9149 253.598 50.8109 250.598 59.4509H249.422C250.31 56.3309 252.878 47.1149 252.878 44.6909Z" fill="#333333"/>
<path d="M264.795 49.2989C264.795 51.0989 262.515 56.4509 262.515 58.1069C262.515 58.5149 262.755 58.7309 263.187 58.7309C264.555 58.7309 267.027 56.8829 270.003 48.2669H271.275C270.699 50.2349 269.355 54.7229 268.947 57.3389C268.371 60.9149 266.355 63.6989 262.443 63.6989C260.619 63.6989 259.755 63.2189 259.875 62.1869C260.859 62.4509 262.179 62.6909 263.499 62.7149C266.355 62.7149 266.931 62.1629 267.531 59.1149C267.795 57.7229 268.011 56.4029 268.275 55.1309C268.491 54.0989 269.139 51.8189 269.571 50.4509L269.451 50.4029C266.739 57.2429 264.699 59.5949 262.683 59.5949C261.699 59.5949 261.315 59.0669 261.315 58.4429C261.315 56.5949 263.547 51.4829 263.547 49.6349C263.547 49.2269 263.403 48.9869 263.163 48.9869C262.635 48.9869 261.795 49.9469 260.835 51.6989L260.715 51.5789C261.651 49.5629 262.779 48.0269 263.931 48.0269C264.435 48.0269 264.795 48.4349 264.795 49.2989Z" fill="#333333"/>
<path d="M279.31 58.0829C279.31 58.4909 279.454 58.7549 279.694 58.7549C280.246 58.7549 281.086 57.7709 282.022 55.9949L282.166 56.1149C281.23 58.1309 280.102 59.6909 278.926 59.6909C278.446 59.6909 278.11 59.2829 278.11 58.4429C278.11 56.5469 279.238 52.4909 279.91 50.4029L279.79 50.3549C276.766 57.0029 275.062 59.6909 273.214 59.6909C272.23 59.6909 271.654 58.9709 271.654 57.3629C271.654 53.0429 275.326 47.8829 281.59 48.0749C280.918 50.2349 279.31 55.9469 279.31 58.0829ZM273.742 58.8029C274.846 58.8029 276.982 56.6669 280.318 48.4109C275.254 49.0589 272.854 53.9069 272.854 57.1949C272.854 58.4429 273.19 58.8029 273.742 58.8029Z" fill="#333333"/>
<path d="M286.887 49.2989C286.887 50.7629 285.663 55.0829 284.991 57.2189L285.087 57.2669C287.799 50.4509 289.839 48.0509 291.855 48.0509C292.839 48.0509 293.223 48.5789 293.223 49.2269C293.223 51.0749 291.015 56.2589 291.015 58.0829C291.015 58.5149 291.159 58.7309 291.399 58.7309C291.927 58.7309 292.791 57.7709 293.727 55.9949L293.847 56.1149C292.935 58.1309 291.783 59.6909 290.631 59.6909C290.127 59.6909 289.767 59.2829 289.767 58.4189C289.767 56.5709 292.023 51.2429 292.023 49.5629C292.023 49.1549 291.783 48.9389 291.351 48.9389C290.007 48.9389 287.487 50.8349 284.511 59.4509H283.287C283.911 57.4109 285.687 51.3389 285.687 49.6349C285.687 49.2269 285.567 48.9869 285.327 48.9869C284.775 48.9869 283.935 49.9709 282.999 51.7229L282.855 51.6029C283.791 49.5869 284.943 48.0269 286.071 48.0269C286.575 48.0269 286.887 48.4349 286.887 49.2989Z" fill="#333333"/>
</svg>
