<svg width="220" height="36" viewBox="0 0 220 36" fill="none" xmlns="http://www.w3.org/2000/svg">
<path d="M21.0533 14.6365C21.9278 10.2615 24.903 7.65673 28.9571 7.65673C33.5245 7.65673 36.2953 10.6232 36.7041 14.6365H21.0533ZM28.9571 3.95703C21.1578 3.95703 16.4336 10.054 16.4336 17.5017C16.4336 24.9493 21.3099 31.0415 29.0569 31.0415C35.0121 31.0415 39.3228 28.075 40.6061 22.9716L36.4997 21.978C35.7298 25.2628 33.0112 27.1344 29.0569 27.1344C24.3897 27.1344 21.1056 23.6469 20.7966 18.3362H41.2334C41.2857 17.8538 41.3333 16.9277 41.3333 16.3054C41.3333 9.5524 36.6138 3.95703 28.9761 3.95703" fill="black"/>
<path d="M58.1435 3.95703C54.194 3.95703 51.0619 6.19518 49.2654 9.32087V4.37668H44.9023V30.6267H49.2654V19.1176C49.2654 12.1861 52.3452 7.97027 57.1692 7.97027C60.8146 7.97027 63.0198 10.5219 63.0198 14.0625V30.6267H67.3829V13.228C67.3829 7.65673 63.5331 3.95703 58.1435 3.95703Z" fill="black"/>
<path d="M109.884 24.4267L103.829 4.375H99.6179L93.5629 24.4267L87.9689 4.375H77.7838V0H73.4445V4.375H69.1338V8.29659H73.4445V22.7674C73.4445 28.5557 76.6764 31.0543 81.0917 31.0543C82.4685 31.083 83.8399 30.8709 85.1458 30.4272L83.72 26.771C83.0309 26.9526 82.3217 27.0434 81.6098 27.0411C79.3522 27.0411 77.8076 25.6856 77.8076 22.9265V8.29659H84.699L91.4242 30.6443H95.7017L101.757 10.6939L107.812 30.6443H112.089L120.045 4.3943H115.478L109.884 24.4267Z" fill="black"/>
<path d="M124.957 14.636C125.827 10.261 128.807 7.65625 132.861 7.65625C137.429 7.65625 140.199 10.6228 140.613 14.636H124.957ZM132.852 3.95654C125.048 3.95654 120.328 10.0536 120.328 17.5012C120.328 24.9488 125.204 31.041 132.956 31.041C138.907 31.041 143.217 28.0745 144.501 22.9712L140.394 21.9775C139.624 25.2624 136.906 27.1339 132.956 27.1339C128.284 27.1339 125 23.6465 124.691 18.3357H145.128C145.18 17.8533 145.228 16.9272 145.228 16.3049C145.228 9.55192 140.508 3.95654 132.871 3.95654" fill="black"/>
<path d="M162.049 3.95703C158.099 3.95703 154.967 6.19518 153.171 9.32087V4.37668H148.812V30.6267H153.171V19.1176C153.171 12.1861 156.251 7.97027 161.075 7.97027C164.72 7.97027 166.925 10.5219 166.925 14.0625V30.6267H171.288V13.228C171.288 7.65673 167.438 3.95703 162.049 3.95703Z" fill="black"/>
<path d="M218.906 0L217.855 2.5951L216.8 0H215.697V4.375H216.8V2.64334L217.503 4.375H218.207L218.906 2.64816V4.375H220.008V0H218.906ZM211.387 0H214.761V1.11908H213.625V4.375H212.523V1.11908H211.387V0Z" fill="black"/>
<path d="M12.4712 27.0314C10.2137 27.0314 8.66901 25.676 8.66901 22.9169V8.29659H15.6033V4.3943H8.66901V0H4.31075V4.375H0V8.29659H4.31075V22.7674C4.31075 28.5557 7.54261 31.0495 11.9579 31.0495C13.3348 31.0786 14.7062 30.8664 16.012 30.4224L14.5862 26.7661C13.8956 26.9481 13.1847 27.0389 12.4712 27.0363" fill="black"/>
<path d="M185.487 27.0314C183.229 27.0314 181.685 25.676 181.685 22.9169V8.29659H188.524L197.112 30.2777L195.306 35.0193H199.764L211.38 4.3943H206.912L199.308 24.499L191.703 4.3943H181.685V0H177.326V4.375H173.016V8.29659H177.326V22.7674C177.326 28.5557 180.558 31.0495 184.974 31.0495C186.35 31.0782 187.722 30.8661 189.028 30.4224L187.602 26.7661C186.913 26.9478 186.204 27.0386 185.492 27.0363" fill="black"/>
</svg>
